<?xml version="1.0" encoding="utf-8"?>
<!-- Generator: Adobe Illustrator 16.0.0, SVG Export Plug-In . SVG Version: 6.00 Build 0)  -->
<!DOCTYPE svg PUBLIC "-//W3C//DTD SVG 1.1//EN" "http://www.w3.org/Graphics/SVG/1.1/DTD/svg11.dtd">
<svg version="1.1" id="Layer_1" xmlns="http://www.w3.org/2000/svg" xmlns:xlink="http://www.w3.org/1999/xlink" x="0px" y="0px"
	 width="446px" height="499px" viewBox="0 0 446 499" enable-background="new 0 0 446 499" xml:space="preserve">
<g>
	<path stroke="#231F20" stroke-width="2.3604" d="M105.875,395.635L74,396.484c-5.671,0-8.5-1.554-8.5-4.675
		c0-3.679,3.54-6.653,10.625-8.925c8.5-3.4,14.875-8.354,19.125-14.875c6.8-11.05,12.464-20.825,17-29.325
		c4.529-8.5,9.35-17.278,14.45-26.35c5.1-9.064,11.614-20.892,19.55-35.487c7.929-14.59,16.429-29.963,25.5-46.113
		c50.429-90.665,76.5-136.704,78.2-138.125c1.7-1.415,3.679-2.125,5.95-2.125c2.264,0,3.891,0.996,4.887,2.975
		c0.99,1.985,2.617,6.946,4.888,14.875c2.265,7.936,3.825,13.46,4.675,16.575l3.825,14.025c5.101,18.7,17.353,57.734,36.763,117.088
		c19.404,59.36,30.739,93.36,34,102c3.254,8.646,6.162,14.45,8.713,17.425c2.55,2.975,7.929,5.737,16.149,8.287
		c4.529,1.422,6.8,4.25,6.8,8.5c0,2.836-4.396,4.25-13.175,4.25L335.8,395.21l-39.524,2.125c-7.65,0-11.476-1.421-11.476-4.25
		s1.487-5.101,4.463-6.8c2.975-1.7,6.162-2.829,9.563-3.4c3.399-0.564,6.587-2.125,9.563-4.675c2.975-2.55,4.462-6.09,4.462-10.625
		c0-4.529-1.135-11.263-3.399-20.188c-2.271-8.925-4.961-18.487-8.075-28.688c-3.121-10.2-5.246-17.704-6.375-22.525
		c-1.7-6.8-6.8-10.2-15.3-10.2l-51.425,0.426c-21.536,0-35.846-0.213-42.925-0.638c-7.085-0.425-11.761-0.638-14.025-0.638
		c-7.65,0-12.611,2.125-14.875,6.375c-15.871,28.05-25.859,47.321-29.963,57.8c-4.11,10.485-6.162,16.15-6.162,17
		c0,7.086,2.404,11.834,7.225,14.237c4.814,2.411,9.629,3.972,14.45,4.676c4.814,0.71,7.225,2.483,7.225,5.313
		c0,3.971-1.275,5.949-3.825,5.949h-2.55L105.875,395.635z M193.425,266.435l81.175-0.425c3.965,0,6.229-0.989,6.801-2.975
		c0-0.851,0-2.478,0-4.888c0-2.404-6.163-22.313-18.488-59.713c-12.324-37.4-19.762-56.1-22.312-56.1
		c-1.421,0-13.175,19.835-35.275,59.5c-22.1,39.671-33.15,60.35-33.15,62.05s2.689,2.55,8.075,2.55H193.425z"/>
</g>
</svg>
