<?xml version="1.0" encoding="utf-8"?>
<!-- Generator: Adobe Illustrator 16.0.0, SVG Export Plug-In . SVG Version: 6.00 Build 0)  -->
<!DOCTYPE svg PUBLIC "-//W3C//DTD SVG 1.1//EN" "http://www.w3.org/Graphics/SVG/1.1/DTD/svg11.dtd">
<svg version="1.1" id="Layer_1" xmlns="http://www.w3.org/2000/svg" xmlns:xlink="http://www.w3.org/1999/xlink" x="0px" y="0px"
	 width="446px" height="499px" viewBox="0 0 446 499" enable-background="new 0 0 446 499" xml:space="preserve">
<g>
	<path stroke="#231F20" stroke-width="2.3604" d="M155.675,272.16l-27.2,67.574c-4.25,10.486-6.375,19.125-6.375,25.926
		c0,9.35,4.25,16.01,12.75,19.975H74.075c2.829,0,6.939-2.829,12.325-8.5c5.379-5.664,11.615-16.854,18.7-33.575L216.025,79.635
		l110.075,265.2c6.229,15.3,12.252,25.785,18.063,31.45c5.805,5.671,10.413,8.785,13.813,9.35h-70.55
		c7.079-3.4,10.625-8.64,10.625-15.725c0-5.95-2.271-14.45-6.8-25.5l-29.75-72.25H155.675z M254.7,254.734L208.375,141.26
		L162.9,254.734H254.7z"/>
</g>
</svg>
