<?xml version="1.0" encoding="utf-8"?>
<!-- Generator: Adobe Illustrator 16.0.0, SVG Export Plug-In . SVG Version: 6.00 Build 0)  -->
<!DOCTYPE svg PUBLIC "-//W3C//DTD SVG 1.1//EN" "http://www.w3.org/Graphics/SVG/1.1/DTD/svg11.dtd">
<svg version="1.1" id="Layer_1" xmlns="http://www.w3.org/2000/svg" xmlns:xlink="http://www.w3.org/1999/xlink" x="0px" y="0px"
	 width="446px" height="499px" viewBox="0 0 446 499" enable-background="new 0 0 446 499" xml:space="preserve">
<g>
	<path stroke="#231F20" stroke-width="2.3604" d="M144.475,395.635l-45.05,2.55c-5.95,0-8.925-2.198-8.925-6.587
		c0-4.39,1.979-6.588,5.95-6.588c6.8,0,11.475-1.554,14.025-4.675c2.55-3.114,4.389-5.313,5.525-6.588
		c1.129-1.274,2.125-3.825,2.975-7.649c0.85-3.825,1.415-6.303,1.7-7.438c0.279-1.129,0.704-3.825,1.275-8.075l0.85-6.8
		c3.4-22.101,8.075-61.691,14.025-118.788c5.95-57.089,8.925-89.037,8.925-95.837c0-6.8-3.546-12.75-10.625-17.85
		c-3.686-2.829-8.148-4.389-13.388-4.675c-5.246-0.279-8.785-0.917-10.625-1.913c-1.846-0.989-2.762-2.404-2.762-4.25
		c0-1.839,0.637-3.254,1.913-4.25c1.275-0.989,2.477-1.487,3.612-1.487l28.9,1.7l93.075-0.85c25.214,0,45.9,5.525,62.05,16.575
		c16.149,11.05,24.225,28.05,24.225,51c0,9.35-2.059,18.275-6.162,26.775c-4.111,8.5-9.138,15.513-15.088,21.038
		s-11.834,10.273-17.638,14.238c-5.811,3.971-10.771,7.085-14.875,9.35c-4.11,2.271-6.162,3.613-6.162,4.038
		c0,0.425,2.125,1.275,6.375,2.55c4.25,1.275,9.35,3.188,15.3,5.737s11.9,6.023,17.85,10.412
		c5.95,4.396,11.051,10.838,15.301,19.338s6.375,17.996,6.375,28.475c0,10.486-2.198,20.972-6.588,31.45
		c-4.396,10.485-11.9,20.898-22.525,31.237c-10.625,10.347-23.022,17.784-37.187,22.313c-14.171,4.536-32.585,6.801-55.25,6.801
		L144.475,395.635z M151.7,363.76c0,6.8,3.539,11.834,10.625,15.088c7.079,3.26,20.825,4.887,41.225,4.887
		c27.765,0,48.663-7.789,62.688-23.375c14.025-15.578,21.038-31.875,21.038-48.875s-5.738-31.941-17.213-44.837
		c-11.475-12.89-28.123-20.188-49.938-21.888c-21.821-1.7-34.425-2.55-37.825-2.55h-12.325c-2.55,0-4.96,9.848-7.225,29.537
		c-2.271,19.696-3.825,32.513-4.675,38.463l-3.4,28.475c-0.285,3.121-0.71,6.8-1.275,11.05
		C152.265,357.67,151.7,362.346,151.7,363.76z M170.4,223.935c0,3.686,2.975,5.884,8.925,6.588c5.95,0.71,21.954,1.063,48.025,1.063
		c11.05,0,20.825-2.265,29.325-6.8c8.5-4.529,14.875-10.2,19.125-17c8.5-13.6,12.75-26.35,12.75-38.25
		c0-16.429-6.235-29.889-18.7-40.375c-7.371-6.229-15.512-10.764-24.437-13.6c-8.925-2.829-19.909-4.25-32.938-4.25
		c-13.036,0-20.971,1.136-23.8,3.4c-2.835,2.271-4.821,7.085-5.95,14.45l-5.1,34.85C172.804,195.46,170.4,215.435,170.4,223.935z"/>
</g>
</svg>
