<?xml version="1.0" encoding="utf-8"?>
<!-- Generator: Adobe Illustrator 16.0.0, SVG Export Plug-In . SVG Version: 6.00 Build 0)  -->
<!DOCTYPE svg PUBLIC "-//W3C//DTD SVG 1.1//EN" "http://www.w3.org/Graphics/SVG/1.1/DTD/svg11.dtd">
<svg version="1.1" id="Layer_1" xmlns="http://www.w3.org/2000/svg" xmlns:xlink="http://www.w3.org/1999/xlink" x="0px" y="0px"
	 width="446px" height="499px" viewBox="0 0 446 499" enable-background="new 0 0 446 499" xml:space="preserve">
<g>
	<path stroke="#231F20" stroke-width="2.3604" d="M211.563,383.935c-9.496,1.136-22.598,1.7-39.313,1.7h-70.125
		c3.679-0.85,7.65-4.037,11.9-9.563s6.375-16.217,6.375-32.088V133.61c0-14.729-1.985-24.863-5.95-30.388
		c-3.971-5.525-7.936-8.852-11.9-9.987h69.7c18.129,0,31.941,0.784,41.438,2.337c9.489,1.561,17.777,3.898,24.862,7.013
		c12.465,5.95,22.101,14.311,28.9,25.075c6.8,10.771,10.2,22.386,10.2,34.85c0,18.985-5.738,35.348-17.213,49.087
		c-11.475,13.746-26.563,22.598-45.263,26.563c12.75,1.421,24.863,5.1,36.338,11.05c11.475,5.95,20.825,14.024,28.05,24.225
		s10.838,21.821,10.838,34.851c0,18.135-4.821,32.938-14.45,44.412c-9.636,11.475-22.671,20.048-39.1,25.713
		C229.479,380.96,221.052,382.806,211.563,383.935z M206.675,113.422c-6.521-2.125-15.3-3.188-26.35-3.188H151v120.7h34.425
		c10.2,0,18.7-1.554,25.5-4.675c6.8-3.114,12.75-7.225,17.85-12.325c5.379-5.379,9.629-11.9,12.75-19.55
		c3.115-7.65,4.675-15.439,4.675-23.375c0-9.629-1.773-18.7-5.313-27.2c-3.546-8.5-8.859-15.439-15.938-20.825
		C219.279,118.735,213.189,115.547,206.675,113.422z M213.9,250.91c-7.936-1.979-18.7-2.976-32.3-2.976H151v120.7h40.375
		c20.4,0,36.337-4.814,47.813-14.45c11.476-9.629,17.213-24.929,17.213-45.899c0-19.551-7.511-35.555-22.525-48.025
		C228.489,256.01,221.829,252.896,213.9,250.91z"/>
</g>
</svg>
