<?xml version="1.0" encoding="utf-8"?>
<!-- Generator: Adobe Illustrator 16.0.0, SVG Export Plug-In . SVG Version: 6.00 Build 0)  -->
<!DOCTYPE svg PUBLIC "-//W3C//DTD SVG 1.1//EN" "http://www.w3.org/Graphics/SVG/1.1/DTD/svg11.dtd">
<svg version="1.1" id="Layer_1" xmlns="http://www.w3.org/2000/svg" xmlns:xlink="http://www.w3.org/1999/xlink" x="0px" y="0px"
	 width="446px" height="499px" viewBox="0 0 446 499" enable-background="new 0 0 446 499" xml:space="preserve">
<g>
	<path stroke="#231F20" stroke-width="2.3604" d="M133.212,361.422c-11.475-13.453-20.121-28.541-25.925-45.262
		c-5.811-16.715-8.712-34.99-8.712-54.825c0-19.829,3.4-39.592,10.2-59.288c6.8-19.689,16.788-37.752,29.962-54.188
		c13.175-16.429,30.527-29.538,52.063-39.313c21.529-9.775,45.9-14.663,73.1-14.663c17.279,0,34.139,2.696,50.575,8.075
		c16.43,5.385,29.325,10.771,38.676,16.15l13.6,8.075c0.85,0,2.338-1.129,4.463-3.4c2.125-2.264,3.752-3.4,4.887-3.4
		c3.4,0,5.101,2.271,5.101,6.8c0,24.936,0.638,41.225,1.912,48.875c1.275,7.65,1.913,12.471,1.913,14.45c0,6.8-1.986,10.2-5.95,10.2
		c-1.985,0-3.686-1.129-5.101-3.4c-1.421-2.264-3.188-6.441-5.313-12.537c-2.125-6.09-4.322-11.967-6.587-17.638
		c-4.536-11.614-12.896-21.529-25.075-29.75c-25.785-17.564-51.923-26.35-78.413-26.35c-26.496,0-49.3,7.159-68.425,21.462
		c-19.125,14.311-33.15,32.161-42.075,53.55c-8.925,21.396-13.387,44.273-13.387,68.637c0,41.65,11.475,74.733,34.425,99.237
		c22.95,24.511,51.212,36.763,84.788,36.763c33.575,0,63.251-14.589,89.038-43.774c3.399-3.68,6.515-8.566,9.35-14.663
		c2.829-6.089,5.239-10.903,7.226-14.45c1.979-3.539,4.25-5.313,6.8-5.313c4.528,0,6.8,2.551,6.8,7.65
		c0,3.686-1.063,8.5-3.188,14.45s-3.612,10.412-4.463,13.388c-0.85,2.975-1.772,6.873-2.762,11.688
		c-0.996,4.82-1.847,8.147-2.551,9.987c-0.71,1.846-2.059,3.333-4.037,4.462c-41.086,21.536-78.91,32.301-113.475,32.301
		c-23.8,0-45.123-3.972-63.962-11.9C159.841,385.581,144.688,374.883,133.212,361.422z"/>
</g>
</svg>
