<?xml version="1.0" encoding="utf-8"?>
<!-- Generator: Adobe Illustrator 16.0.0, SVG Export Plug-In . SVG Version: 6.00 Build 0)  -->
<!DOCTYPE svg PUBLIC "-//W3C//DTD SVG 1.1//EN" "http://www.w3.org/Graphics/SVG/1.1/DTD/svg11.dtd">
<svg version="1.1" id="Layer_1" xmlns="http://www.w3.org/2000/svg" xmlns:xlink="http://www.w3.org/1999/xlink" x="0px" y="0px"
	 width="446px" height="499px" viewBox="0 0 446 499" enable-background="new 0 0 446 499" xml:space="preserve">
<g>
	<path stroke="#231F20" stroke-width="2.3604" d="M294.225,381.81c-17.285,5.95-34.71,8.925-52.274,8.925
		c-26.35,0-50.861-6.089-73.525-18.274c-22.671-12.179-40.873-29.75-54.612-52.7C100.066,296.81,93.2,269.896,93.2,239.01
		c0-28.9,6.302-54.825,18.912-77.775c12.604-22.95,30.6-40.867,53.975-53.763c23.375-12.889,50.642-19.337,81.813-19.337
		c33.15,0,62.615,7.225,88.4,21.675v47.175c-8.785-15.579-21.535-27.977-38.25-37.188c-16.721-9.204-34.571-13.813-53.55-13.813
		c-24.085,0-44.983,5.671-62.688,17c-17.71,11.335-31.237,26.848-40.587,46.538c-9.35,19.696-14.025,41.723-14.025,66.087
		c0,27.486,5.313,51.426,15.938,71.825c10.625,20.4,25.002,36.059,43.137,46.963c18.129,10.91,38.39,16.362,60.775,16.362
		c35.979,0,65.729-10.479,89.25-31.45v20.4C325.529,368.495,311.504,375.859,294.225,381.81z"/>
</g>
</svg>
