<?xml version="1.0" encoding="utf-8"?>
<!-- Generator: Adobe Illustrator 16.0.0, SVG Export Plug-In . SVG Version: 6.00 Build 0)  -->
<!DOCTYPE svg PUBLIC "-//W3C//DTD SVG 1.1//EN" "http://www.w3.org/Graphics/SVG/1.1/DTD/svg11.dtd">
<svg version="1.1" id="Layer_1" xmlns="http://www.w3.org/2000/svg" xmlns:xlink="http://www.w3.org/1999/xlink" x="0px" y="0px"
	 width="446px" height="499px" viewBox="0 0 446 499" enable-background="new 0 0 446 499" xml:space="preserve">
<g>
	<path stroke="#231F20" stroke-width="2.3604" d="M208.65,395.635l-65.875-1.275c-9.921,0-19.198,0.571-27.837,1.7
		c-8.646,1.129-13.958,1.7-15.938,1.7c-1.985,0-3.898-0.783-5.737-2.338c-1.846-1.554-2.763-3.399-2.763-5.524
		s1.129-3.679,3.4-4.675c2.265-0.99,4.888-1.7,7.863-2.125c2.975-0.426,6.162-2.125,9.563-5.101c3.4-2.975,5.95-7.291,7.65-12.962
		c1.7-5.665,3.114-11.9,4.25-18.7l28.9-212.5c0.564-4.529,0.85-7.079,0.85-7.65c0-4.25-1.986-8.141-5.95-11.688
		c-3.971-3.539-8.36-5.452-13.175-5.737c-13.036-0.85-19.55-3.892-19.55-9.138c0-5.239,4.39-7.862,13.175-7.862
		c4.814,0,11.402,0.784,19.762,2.337c8.354,1.561,16.077,2.337,23.163,2.337c7.079,0,16.927-0.704,29.538-2.125
		c12.604-1.414,24.862-2.125,36.763-2.125c53.829,0,93.427,11.263,118.787,33.788c25.354,22.525,38.038,51.425,38.038,86.7
		s-11.051,69.913-33.15,103.913c-6.235,9.921-15.233,20.473-26.987,31.662c-11.761,11.196-21.323,18.913-28.688,23.163
		C278.064,387.56,246.05,395.635,208.65,395.635z M168.913,255.81c-9.21,72.536-13.813,110.222-13.813,113.05
		c0,2.836,1.415,5.599,4.25,8.288c2.829,2.696,8.214,4.037,16.15,4.037h37.4c12.464,0,27.2-2.975,44.2-8.925
		c30.029-10.765,53.829-31.025,71.4-60.775c11.9-20.114,19.829-44.903,23.8-74.375c1.415-9.064,2.125-17.704,2.125-25.925
		c0-8.214-0.996-16.641-2.975-25.287c-1.985-8.64-5.811-17.704-11.476-27.2c-5.671-9.489-12.896-17.704-21.675-24.65
		c-8.785-6.939-20.612-12.677-35.487-17.212c-14.875-4.529-31.45-6.8-49.725-6.8s-29.962,1.136-35.063,3.4
		c-5.1,2.271-9.21,8.925-12.325,19.975C183.714,142.481,178.116,183.281,168.913,255.81z"/>
</g>
</svg>
