<?xml version="1.0" encoding="utf-8"?>
<!-- Generator: Adobe Illustrator 16.0.0, SVG Export Plug-In . SVG Version: 6.00 Build 0)  -->
<!DOCTYPE svg PUBLIC "-//W3C//DTD SVG 1.1//EN" "http://www.w3.org/Graphics/SVG/1.1/DTD/svg11.dtd">
<svg version="1.1" id="Layer_1" xmlns="http://www.w3.org/2000/svg" xmlns:xlink="http://www.w3.org/1999/xlink" x="0px" y="0px"
	 width="446px" height="499px" viewBox="0 0 446 499" enable-background="new 0 0 446 499" xml:space="preserve">
<g>
	<path stroke="#231F20" stroke-width="2.3604" d="M185.85,385.635h-83.725c0,0.85,1.7,0.066,5.1-2.338
		c3.4-2.403,6.441-6.866,9.137-13.387c2.689-6.515,4.038-16.004,4.038-28.476v-209.1c0-11.05-1.348-19.477-4.038-25.288
		c-2.696-5.804-5.737-9.702-9.137-11.688c-3.4-1.979-5.1-2.689-5.1-2.125h83.3c43.35,0,77.629,7.085,102.851,21.25
		c22.379,12.471,39.664,29.325,51.85,50.575c12.179,21.25,18.275,45.196,18.275,71.825c0,28.9-5.738,53.908-17.213,75.013
		c-11.475,21.11-27.698,37.759-48.662,49.938C265.89,377.706,230.329,385.635,185.85,385.635z M236,115.76
		c-14.171-3.679-31.025-5.525-50.575-5.525H151v258.4h34.425c23.229,0,42.288-1.979,57.163-5.95
		c14.875-3.964,27.692-10.054,38.462-18.274c13.879-10.765,24.577-24.863,32.088-42.288c7.504-17.425,11.263-37.752,11.263-60.987
		c0-24.65-4.323-46.252-12.963-64.813c-8.646-18.554-20.473-32.792-35.487-42.712C263.479,125.396,250.165,119.445,236,115.76z"/>
</g>
</svg>
