<?xml version="1.0" encoding="utf-8"?>
<!-- Generator: Adobe Illustrator 16.0.0, SVG Export Plug-In . SVG Version: 6.00 Build 0)  -->
<!DOCTYPE svg PUBLIC "-//W3C//DTD SVG 1.1//EN" "http://www.w3.org/Graphics/SVG/1.1/DTD/svg11.dtd">
<svg version="1.1" id="Layer_1" xmlns="http://www.w3.org/2000/svg" xmlns:xlink="http://www.w3.org/1999/xlink" x="0px" y="0px"
	 width="446px" height="499px" viewBox="0 0 446 499" enable-background="new 0 0 446 499" xml:space="preserve">
<g>
	<path stroke="#231F20" stroke-width="2.3604" d="M152.975,394.359l-47.6,1.275c-9.921,0-14.875-1.912-14.875-5.737
		s3.188-5.877,9.563-6.163c6.375-0.278,11.329-2.55,14.875-6.8c3.54-4.25,6.017-8.925,7.438-14.024
		c1.415-5.101,2.829-12.04,4.25-20.825c1.415-8.779,2.191-13.813,2.337-15.088c0.14-1.274,1.341-8.852,3.613-22.737
		c2.264-13.879,3.964-25.354,5.1-34.425l15.3-128.775c0.279-2.55,0.425-6.654,0.425-12.325c0-5.665-1.7-10.413-5.1-14.238
		c-3.4-3.825-7.085-5.877-11.05-6.162c-10.771-0.85-16.15-3.327-16.15-7.438c0-4.104,3.254-6.163,9.775-6.163l107.525,0.85
		l98.175-1.7c5.1,0,7.649,2.696,7.649,8.075l-1.699,22.525l1.274,22.95c0,7.936-1.846,11.9-5.524,11.9c-4.25,0-6.375-3.4-6.375-10.2
		c0-12.179-4.676-21.104-14.025-26.775c-2.836-1.7-7.796-3.613-14.875-5.738c-7.086-2.125-15.021-3.188-23.8-3.188l-65.45-1.275
		c-12.471,0-20.048,1.421-22.737,4.25c-2.696,2.835-5.173,11.05-7.438,24.65c-7.086,49.586-10.625,77.071-10.625,82.45
		c0,5.386,0.916,8.36,2.762,8.925c1.839,0.571,14.091,0.85,36.763,0.85c22.665,0,38.316-0.564,46.962-1.7
		c8.64-1.129,14.59-3.679,17.85-7.65c3.254-3.964,5.738-7.929,7.438-11.9c1.7-3.964,2.976-6.8,3.825-8.5
		c0.851-1.7,2.125-2.55,3.825-2.55c3.4,0,5.1,1.421,5.1,4.25c0,2.835-1.208,9.563-3.612,20.188
		c-2.41,10.625-3.971,18.135-4.675,22.525c-0.711,4.396-1.063,10.559-1.063,18.487c0,17-2.271,25.5-6.8,25.5
		c-3.121,0-4.675-2.265-4.675-6.8c0-13.6-2.411-22.1-7.226-25.5c-8.221-5.95-23.375-8.925-45.475-8.925h-20.4l-13.175-0.425
		c-0.85,0-1.7,0-2.55,0c-10.771,0-16.296,2.41-16.575,7.225c-0.85,8.5-2.55,21.11-5.1,37.825c-6.8,41.936-10.2,64.46-10.2,67.575
		c0,6.8,3.4,11.123,10.2,12.962c6.8,1.847,21.742,2.763,44.837,2.763c23.09,0,43.064-2.191,59.925-6.588
		c16.854-4.389,28.329-9.203,34.426-14.449c6.089-5.24,11.189-10.055,15.3-14.45c4.104-4.39,7.013-6.588,8.712-6.588
		c2.829,0,4.25,1.985,4.25,5.95c0,7.65-5.949,18.985-17.85,34c-11.9,15.021-22.386,22.525-31.45,22.525
		c-20.4,0-45.833-0.784-76.287-2.338C177.552,395.144,159.204,394.359,152.975,394.359z"/>
</g>
</svg>
