<?xml version="1.0" encoding="utf-8"?>
<!-- Generator: Adobe Illustrator 16.0.0, SVG Export Plug-In . SVG Version: 6.00 Build 0)  -->
<!DOCTYPE svg PUBLIC "-//W3C//DTD SVG 1.1//EN" "http://www.w3.org/Graphics/SVG/1.1/DTD/svg11.dtd">
<svg version="1.1" id="Layer_1" xmlns="http://www.w3.org/2000/svg" xmlns:xlink="http://www.w3.org/1999/xlink" x="0px" y="0px"
	 width="446px" height="499px" viewBox="0 0 446 499" enable-background="new 0 0 446 499" xml:space="preserve">
<g>
	<path stroke="#231F20" stroke-width="2.3604" d="M102.125,385.635c0,0.85,1.7,0.213,5.1-1.912s6.441-6.375,9.137-12.75
		c2.689-6.375,4.038-15.652,4.038-27.838V134.46c0-11.615-1.348-20.467-4.038-26.563c-2.696-6.09-5.737-10.267-9.137-12.538
		c-3.4-2.265-5.1-2.975-5.1-2.125h153.85v42.5c-5.1-17-20.399-25.5-45.899-25.5H151v120.7h73.1c5.665,0,10.479-0.916,14.45-2.762
		c3.965-1.839,6.939-3.752,8.925-5.738c1.979-1.979,3.114-3.254,3.4-3.825v41.225c-0.286-0.564-1.421-1.84-3.4-3.825
		c-1.986-1.979-4.888-3.825-8.712-5.525c-3.825-1.699-8.573-2.55-14.238-2.55H151v120.7h66.3c12.75,0,23.727-2.616,32.938-7.862
		c9.204-5.239,15.792-11.967,19.763-20.188l-7.65,45.05H102.125z"/>
</g>
</svg>
