<?xml version="1.0" encoding="utf-8"?>
<!-- Generator: Adobe Illustrator 16.0.0, SVG Export Plug-In . SVG Version: 6.00 Build 0)  -->
<!DOCTYPE svg PUBLIC "-//W3C//DTD SVG 1.1//EN" "http://www.w3.org/Graphics/SVG/1.1/DTD/svg11.dtd">
<svg version="1.1" id="Layer_1" xmlns="http://www.w3.org/2000/svg" xmlns:xlink="http://www.w3.org/1999/xlink" x="0px" y="0px"
	 width="446px" height="499px" viewBox="0 0 446 499" enable-background="new 0 0 446 499" xml:space="preserve">
<g>
	<path stroke="#231F20" stroke-width="2.3604" d="M151,110.235v120.7h73.525c10.479,0,17.492-1.554,21.038-4.675
		c3.54-3.114,5.313-5.665,5.313-7.65v41.65c0-0.85-0.638-2.191-1.913-4.037c-1.275-1.84-3.825-3.68-7.65-5.525
		c-3.825-1.84-9.423-2.763-16.788-2.763H151v98.175c0,11.051,1.415,19.484,4.25,25.288c2.829,5.811,5.95,9.774,9.35,11.899
		s5.1,2.902,5.1,2.338h-67.575c0,0.564,1.7-0.14,5.1-2.125c3.4-1.979,6.441-5.877,9.137-11.688
		c2.689-5.804,4.038-14.377,4.038-25.713V134.885c0-11.614-1.348-20.466-4.038-26.563c-2.696-6.089-5.737-10.339-9.137-12.75
		c-3.4-2.404-5.1-3.188-5.1-2.337h153.85v43.35c-1.421-6.8-5.386-12.89-11.899-18.275c-6.521-5.379-15.725-8.075-27.625-8.075H151z"
		/>
</g>
</svg>
