<?xml version="1.0" encoding="utf-8"?>
<!-- Generator: Adobe Illustrator 16.0.0, SVG Export Plug-In . SVG Version: 6.00 Build 0)  -->
<!DOCTYPE svg PUBLIC "-//W3C//DTD SVG 1.1//EN" "http://www.w3.org/Graphics/SVG/1.1/DTD/svg11.dtd">
<svg version="1.1" id="Layer_1" xmlns="http://www.w3.org/2000/svg" xmlns:xlink="http://www.w3.org/1999/xlink" x="0px" y="0px"
	 width="446px" height="499px" viewBox="0 0 446 499" enable-background="new 0 0 446 499" xml:space="preserve">
<g>
	<path d="M164.2,376.401c-21.601-10.663-38.938-26.663-52-48c-13.069-21.332-19.601-47.332-19.601-78c0-27.2,6.2-51.601,18.601-73.2
		c12.399-21.6,29.862-38.531,52.399-50.8c22.531-12.262,48.463-18.4,77.801-18.4c18.662,0,35.531,2.138,50.6,6.4
		c15.063,4.269,27,8.938,35.8,14v44.4c-8.269-14.4-20.6-26-37-34.8c-16.399-8.8-33.138-13.2-50.2-13.2c-23.737,0-44.337,5-61.8,15
		c-17.469,10-30.868,24.2-40.2,42.6c-9.337,18.4-14,40-14,64.8c0,26.938,5.4,50,16.2,69.2c10.8,19.199,25.132,33.6,43,43.199
		c17.862,9.601,37.331,14.4,58.4,14.4c9.6,0,19.531-1.131,29.8-3.4c10.263-2.262,19.8-5.531,28.6-9.8v-66
		c0-8.263-1.337-14.731-4-19.399c-2.668-4.663-5.6-8-8.8-10s-4.8-2.731-4.8-2.2h64c0-0.531-1.6,0-4.8,1.6
		c-3.2,1.601-6.138,4.601-8.8,9c-2.669,4.4-4,10.601-4,18.601v72.8c-14.138,8.8-29.4,15.537-45.801,20.2
		c-16.399,4.662-32.737,7-49,7C209.263,392.401,185.8,387.069,164.2,376.401z"/>
</g>
</svg>
