<?xml version="1.0" encoding="utf-8"?>
<!-- Generator: Adobe Illustrator 16.0.0, SVG Export Plug-In . SVG Version: 6.00 Build 0)  -->
<!DOCTYPE svg PUBLIC "-//W3C//DTD SVG 1.1//EN" "http://www.w3.org/Graphics/SVG/1.1/DTD/svg11.dtd">
<svg version="1.1" id="Layer_1" xmlns="http://www.w3.org/2000/svg" xmlns:xlink="http://www.w3.org/1999/xlink" x="0px" y="0px"
	 width="446px" height="499px" viewBox="0 0 446 499" enable-background="new 0 0 446 499" xml:space="preserve">
<g>
	<path stroke="#231F20" stroke-width="2.3604" d="M297.2,383.723c3.399-2.125,6.515-6.09,9.35-11.9
		c2.829-5.804,4.25-14.377,4.25-25.713v-96.475H151v96.475c0,11.336,1.415,19.909,4.25,25.713c2.829,5.811,5.95,9.709,9.35,11.688
		c3.4,1.985,5.1,2.689,5.1,2.125h-67.575c0,0.85,1.7,0.213,5.1-1.912s6.441-6.09,9.137-11.9c2.689-5.804,4.038-14.377,4.038-25.713
		V132.76c0-11.329-1.348-19.902-4.038-25.712c-2.696-5.804-5.737-9.702-9.137-11.688c-3.4-1.979-5.1-2.689-5.1-2.125H169.7
		c0-0.564-1.7,0.146-5.1,2.125c-3.4,1.985-6.521,5.883-9.35,11.688c-2.835,5.811-4.25,14.383-4.25,25.712v98.175h159.8V132.76
		c0-11.329-1.421-19.902-4.25-25.712c-2.835-5.804-5.95-9.702-9.35-11.688c-3.4-1.979-5.101-2.689-5.101-2.125h67.575
		c0-0.85-1.7-0.212-5.1,1.913c-3.4,2.125-6.448,6.096-9.138,11.9c-2.696,5.811-4.037,14.383-4.037,25.712v213.35
		c0,11.336,1.414,19.909,4.25,25.713c2.828,5.811,5.949,9.709,9.35,11.688c3.4,1.985,5.1,2.689,5.1,2.125h-68
		C292.1,386.484,293.8,385.848,297.2,383.723z"/>
</g>
</svg>
