<?xml version="1.0" encoding="utf-8"?>
<!-- Generator: Adobe Illustrator 16.0.0, SVG Export Plug-In . SVG Version: 6.00 Build 0)  -->
<!DOCTYPE svg PUBLIC "-//W3C//DTD SVG 1.1//EN" "http://www.w3.org/Graphics/SVG/1.1/DTD/svg11.dtd">
<svg version="1.1" id="Layer_1" xmlns="http://www.w3.org/2000/svg" xmlns:xlink="http://www.w3.org/1999/xlink" x="0px" y="0px"
	 width="446px" height="499px" viewBox="0 0 446 499" enable-background="new 0 0 446 499" xml:space="preserve">
<g>
	<path stroke="#231F20" stroke-width="2.3604" d="M197.8,394.723c3.4-2.125,6.515-6.09,9.35-11.9
		c2.829-5.804,4.25-14.377,4.25-25.713V143.76c0-11.329-1.348-19.902-4.038-25.712c-2.696-5.804-5.737-9.702-9.137-11.688
		c-3.4-1.979-5.1-2.689-5.1-2.125H260.7c0-0.564-1.7,0.146-5.1,2.125c-3.4,1.985-6.521,5.883-9.35,11.688
		c-2.835,5.811-4.25,14.383-4.25,25.712v213.35c0,11.336,1.415,19.909,4.25,25.713c2.829,5.811,5.95,9.709,9.35,11.688
		c3.4,1.985,5.1,2.689,5.1,2.125h-68C192.7,397.484,194.4,396.848,197.8,394.723z"/>
</g>
</svg>
