<?xml version="1.0" encoding="utf-8"?>
<!-- Generator: Adobe Illustrator 16.0.0, SVG Export Plug-In . SVG Version: 6.00 Build 0)  -->
<!DOCTYPE svg PUBLIC "-//W3C//DTD SVG 1.1//EN" "http://www.w3.org/Graphics/SVG/1.1/DTD/svg11.dtd">
<svg version="1.1" id="Layer_1" xmlns="http://www.w3.org/2000/svg" xmlns:xlink="http://www.w3.org/1999/xlink" x="0px" y="0px"
	 width="446px" height="499px" viewBox="0 0 446 499" enable-background="new 0 0 446 499" xml:space="preserve">
<g>
	<path stroke="#231F20" stroke-width="2.3604" d="M135.275,384.359l-48.45,2.125c-8.221,0-12.325-2.125-12.325-6.375
		c0-2.55,1.275-4.25,3.825-5.1c2.55-0.85,5.525-1.487,8.925-1.912c3.4-0.426,7.013-2.689,10.837-6.801
		c3.825-4.104,7.013-11.189,9.563-21.25c2.55-10.054,7.65-48.024,15.3-113.899c7.65-65.875,11.475-102.213,11.475-109.013
		s-2.762-12.464-8.287-17c-5.525-4.529-12.398-7.079-20.613-7.65c-5.1-0.279-7.65-2.689-7.65-7.225c0-3.4,2.55-5.1,7.65-5.1
		l2.125,0.425c1.415,0,3.466,0.146,6.163,0.425c2.689,0.286,5.737,0.571,9.138,0.85c7.079,0.571,17.564,0.85,31.45,0.85l35.7-1.7
		c5.379,0,8.075,1.421,8.075,4.25c0,1.421-0.498,2.483-1.487,3.188c-0.996,0.71-2.909,1.487-5.737,2.337
		c-12.186,3.971-19.836,12.471-22.95,25.5c-2.271,9.921-4.748,27.625-7.438,53.125c-2.696,25.5-4.184,39.386-4.462,41.65
		c-0.571,4.536-0.85,7.371-0.85,8.5c0,2.55,1.063,3.825,3.188,3.825s18.767-11.542,49.938-34.638
		c31.165-23.089,58.225-43.563,81.175-61.412c15.015-11.9,22.525-20.4,22.525-25.5c0-3.965-3.4-6.939-10.2-8.925
		c-6.8-1.979-10.2-4.389-10.2-7.225c0-3.4,3.825-5.1,11.476-5.1l39.1,2.55l35.275-2.55c5.949,0,8.925,2.271,8.925,6.8
		c0,4.536-1.847,7.225-5.525,8.075c-1.421,0.571-4.037,1.135-7.862,1.7c-3.825,0.571-7.584,1.421-11.263,2.55
		c-9.636,3.121-27.346,14.025-53.125,32.725l-91.8,65.875c-1.421,1.136-3.473,2.55-6.163,4.25c-2.696,1.7-4.887,3.188-6.587,4.463
		c-1.7,1.275-3.473,2.623-5.313,4.037c-1.846,1.421-3.261,2.763-4.25,4.038c-0.996,1.275-1.487,2.484-1.487,3.613
		c0,1.135,4.741,6.8,14.237,17c9.489,10.2,23.441,25.925,41.862,47.175c18.415,21.25,30.952,35.634,37.612,43.138
		c6.654,7.511,14.663,15.446,24.013,23.8c9.351,8.36,17.279,13.6,23.8,15.725c6.515,2.125,13.879,3.474,22.101,4.038
		c8.214,0.571,12.325,2.55,12.325,5.95c0,3.971-2.411,5.949-7.226,5.949l-42.075-1.699H305.7l-10.2,0.425
		c-2.836,0-6.375-2.338-10.625-7.013s-15.871-18.342-34.851-41.013c-51.285-61.2-77.848-92.364-79.687-93.5
		c-1.846-1.129-3.898-1.7-6.163-1.7c-2.271,0-4.396,0.924-6.375,2.763c-1.985,1.847-3.048,2.909-3.188,3.188
		c-0.146,0.286-0.498,0.711-1.063,1.275c-0.571,0.571-0.996,1.136-1.275,1.7c-0.286,0.57-0.637,1.421-1.063,2.55
		c-0.425,1.136-0.784,2.271-1.063,3.399c-0.286,1.136-0.571,2.696-0.85,4.676c-0.571,4.25-2.125,17.71-4.675,40.375
		c-2.55,22.671-3.825,34.57-3.825,35.699c0,15.301,1.488,24.724,4.463,28.263c2.975,3.546,9.629,5.95,19.975,7.226
		c10.34,1.274,15.513,3.686,15.513,7.225c0,3.546-3.261,5.313-9.775,5.313L135.275,384.359z"/>
</g>
</svg>
