<?xml version="1.0" encoding="utf-8"?>
<!-- Generator: Adobe Illustrator 16.0.0, SVG Export Plug-In . SVG Version: 6.00 Build 0)  -->
<!DOCTYPE svg PUBLIC "-//W3C//DTD SVG 1.1//EN" "http://www.w3.org/Graphics/SVG/1.1/DTD/svg11.dtd">
<svg version="1.1" id="Layer_1" xmlns="http://www.w3.org/2000/svg" xmlns:xlink="http://www.w3.org/1999/xlink" x="0px" y="0px"
	 width="446px" height="499px" viewBox="0 0 446 499" enable-background="new 0 0 446 499" xml:space="preserve">
<g>
	<path stroke="#231F20" stroke-width="2.3604" d="M311.45,396.635L178,247.885v109.65c0,14.171,1.979,24.085,5.95,29.75
		c3.964,5.671,7.65,8.785,11.05,9.35h-65.45c3.4-0.564,7.225-3.612,11.475-9.138c4.25-5.524,6.375-15.513,6.375-29.962V143.76
		c0-14.45-1.985-24.364-5.95-29.75c-3.971-5.379-7.936-8.64-11.9-9.775H195c-3.4,0.571-7.085,3.612-11.05,9.137
		c-3.971,5.525-5.95,15.659-5.95,30.388v102.85l100.725-100.3c16.15-16.15,24.226-27.2,24.226-33.15c0-5.1-1.985-8.075-5.95-8.925
		h66.725c-4.535,0.571-11.688,3.612-21.462,9.137c-9.775,5.525-22.313,15.938-37.612,31.238l-95.2,94.35l107.524,116.875
		c13.029,15.021,23.303,25.287,30.813,30.813c7.504,5.524,12.816,8.858,15.938,9.987H311.45z"/>
</g>
</svg>
