<?xml version="1.0" encoding="utf-8"?>
<!-- Generator: Adobe Illustrator 16.0.0, SVG Export Plug-In . SVG Version: 6.00 Build 0)  -->
<!DOCTYPE svg PUBLIC "-//W3C//DTD SVG 1.1//EN" "http://www.w3.org/Graphics/SVG/1.1/DTD/svg11.dtd">
<svg version="1.1" id="Layer_1" xmlns="http://www.w3.org/2000/svg" xmlns:xlink="http://www.w3.org/1999/xlink" x="0px" y="0px"
	 width="446px" height="499px" viewBox="0 0 446 499" enable-background="new 0 0 446 499" xml:space="preserve">
<g>
	<path stroke="#231F20" stroke-width="2.3604" d="M112.362,117.047c-2.696-5.804-5.737-9.702-9.137-11.688
		c-3.4-1.979-5.1-2.689-5.1-2.125H165.7c0-0.564-1.7,0.146-5.1,2.125c-3.4,1.985-6.521,5.883-9.35,11.688
		c-2.835,5.811-4.25,14.383-4.25,25.712v235.875h69.7c12.75,0,23.727-2.616,32.938-7.862c9.204-5.239,15.791-11.967,19.763-20.188
		l-7.65,45.05H98.125c0,0.85,1.7,0.213,5.1-1.912s6.441-6.375,9.137-12.75c2.689-6.375,4.038-15.652,4.038-27.838V142.76
		C116.4,131.431,115.052,122.858,112.362,117.047z"/>
</g>
</svg>
