<?xml version="1.0" encoding="utf-8"?>
<!-- Generator: Adobe Illustrator 16.0.0, SVG Export Plug-In . SVG Version: 6.00 Build 0)  -->
<!DOCTYPE svg PUBLIC "-//W3C//DTD SVG 1.1//EN" "http://www.w3.org/Graphics/SVG/1.1/DTD/svg11.dtd">
<svg version="1.1" id="Layer_1" xmlns="http://www.w3.org/2000/svg" xmlns:xlink="http://www.w3.org/1999/xlink" x="0px" y="0px"
	 width="446px" height="499px" viewBox="0 0 446 499" enable-background="new 0 0 446 499" xml:space="preserve">
<g>
	<path stroke="#231F20" stroke-width="2.3604" d="M111.475,386.484L83.85,387.76c-6.236,0-9.35-1.561-9.35-4.675
		c0-2.55,1.979-4.25,5.95-5.101c5.664-1.699,9.629-3.612,11.9-5.737c2.264-2.125,4.316-4.316,6.163-6.587
		c1.839-2.265,3.466-5.313,4.887-9.138c1.415-3.825,2.55-7.226,3.4-10.2c0.85-2.975,1.913-7.929,3.188-14.875
		c1.275-6.939,2.265-12.816,2.975-17.638c0.704-4.814,1.913-12.75,3.613-23.8c1.7-11.05,2.975-19.55,3.825-25.5
		s2.477-16.077,4.888-30.388c2.404-14.304,4.177-25.712,5.313-34.212c3.964-25.5,5.95-42.288,5.95-50.362
		c0-8.075-0.285-13.667-0.85-16.788c-0.571-3.114-1.136-5.525-1.7-7.225c-0.571-1.7-1.846-3.752-3.825-6.163
		c-1.985-2.404-3.26-3.964-3.825-4.675c-0.571-0.704-2.337-2.404-5.313-5.1c-2.975-2.689-4.748-4.316-5.313-4.887
		c-3.4-3.115-8.361-4.888-14.875-5.313c-6.521-0.425-11.973-0.85-16.363-1.275c-4.396-0.425-6.587-2.477-6.587-6.162
		c0-5.379,9.49-8.075,28.475-8.075l17.85,1.275l12.75-0.425c4.814,0,8.141,1.063,9.987,3.188c1.839,2.125,3.042,3.612,3.613,4.462
		c0.564,0.85,1.627,2.337,3.188,4.462c1.554,2.125,2.902,4.038,4.037,5.738c67.15,92.936,116.59,164.761,148.325,215.475
		c5.664,9.071,9.35,13.601,11.05,13.601c5.379,0,12.252-32.367,20.612-97.113c8.354-64.739,12.538-101.362,12.538-109.862
		s-1.773-14.875-5.313-19.125c-3.546-4.25-7.584-6.654-12.112-7.225c-11.336-1.979-17-5.665-17-11.05
		c0-2.829,3.539-4.25,10.625-4.25l32.3,1.7l29.75-1.7c4.528,0,7.504,0.425,8.925,1.275c1.414,0.85,2.125,2.059,2.125,3.613
		c0,1.561-0.213,2.623-0.638,3.188c-0.425,0.571-1.208,1.063-2.337,1.487c-1.136,0.425-2.125,0.638-2.976,0.638
		c-11.621,1.985-19.271,8.36-22.95,19.125c-3.686,10.771-6.66,25.646-8.925,44.625C349.9,257.006,338.85,330.245,328.65,376.71
		c-0.286,2.271-1.275,4.748-2.976,7.438s-3.612,4.037-5.737,4.037s-4.323-1.274-6.588-3.825c-2.271-2.55-5.524-7.225-9.774-14.024
		s-8.925-14.45-14.025-22.95c-18.136-29.75-34.212-54.612-48.237-74.588c-14.025-19.975-25.221-35.912-33.575-47.812
		c-8.36-11.9-14.735-20.892-19.125-26.988c-4.396-6.089-8.434-11.688-12.112-16.787c-5.95-8.215-9.848-14.165-11.688-17.85
		c-1.846-3.679-4.184-5.525-7.013-5.525c-3.971,0-6.66,6.66-8.075,19.975c-3.121,31.45-7.65,65.384-13.6,101.788
		c-5.95,36.41-8.925,60.35-8.925,71.824c0,11.476,5.525,18.913,16.575,22.313c1.129,0.286,2.763,0.711,4.888,1.275
		c2.125,0.571,3.752,0.996,4.887,1.275c1.129,0.285,2.404,0.71,3.825,1.274c2.55,1.136,3.825,2.836,3.825,5.101
		c0,3.399-2.411,5.1-7.225,5.1c-1.421,0-5.1-0.213-11.05-0.638C136.975,386.697,126.489,386.484,111.475,386.484z"/>
</g>
</svg>
