<?xml version="1.0" encoding="utf-8"?>
<!-- Generator: Adobe Illustrator 16.0.0, SVG Export Plug-In . SVG Version: 6.00 Build 0)  -->
<!DOCTYPE svg PUBLIC "-//W3C//DTD SVG 1.1//EN" "http://www.w3.org/Graphics/SVG/1.1/DTD/svg11.dtd">
<svg version="1.1" id="Layer_1" xmlns="http://www.w3.org/2000/svg" xmlns:xlink="http://www.w3.org/1999/xlink" x="0px" y="0px"
	 width="446px" height="499px" viewBox="0 0 446 499" enable-background="new 0 0 446 499" xml:space="preserve">
<g>
	<path stroke="#231F20" stroke-width="2.3604" d="M371.825,103.235c-3.972,0.85-7.862,4.038-11.688,9.563
		s-5.737,15.233-5.737,29.112v265.625L136.8,153.81v203.575c0,13.6,2.404,23.162,7.225,28.688c4.814,5.525,9.49,8.713,14.025,9.563
		H98.125c3.964-0.85,8.002-4.037,12.112-9.563c4.104-5.525,6.163-15.227,6.163-29.112v-212.5c0-9.629-3.26-18.415-9.775-26.35
		c-6.521-7.929-14.735-12.89-24.65-14.875h52.7L334,335.71v-193.8c0-21.814-7.371-34.704-22.1-38.675H371.825z"/>
</g>
</svg>
