<?xml version="1.0" encoding="utf-8"?>
<!-- Generator: Adobe Illustrator 16.0.0, SVG Export Plug-In . SVG Version: 6.00 Build 0)  -->
<!DOCTYPE svg PUBLIC "-//W3C//DTD SVG 1.1//EN" "http://www.w3.org/Graphics/SVG/1.1/DTD/svg11.dtd">
<svg version="1.1" id="Layer_1" xmlns="http://www.w3.org/2000/svg" xmlns:xlink="http://www.w3.org/1999/xlink" x="0px" y="0px"
	 width="446px" height="499px" viewBox="0 0 446 499" enable-background="new 0 0 446 499" xml:space="preserve">
<g>
	<path stroke="#231F20" stroke-width="2.3604" d="M82.575,252.185c0-20.964,3.752-41.504,11.262-61.625
		c7.504-20.114,18.202-38.389,32.087-54.825c13.879-16.429,31.663-29.604,53.338-39.525c21.675-9.915,44.977-14.875,69.912-14.875
		c24.929,0,46.963,4.037,66.088,12.112s34.352,18.913,45.688,32.513c23.229,27.771,34.85,61.061,34.85,99.875
		c0,41.936-13.035,79.621-39.1,113.05c-13.036,16.721-30.175,30.108-51.425,40.162c-21.25,10.055-45.196,15.088-71.825,15.088
		c-45.336,0-81.813-13.029-109.438-39.1C96.388,328.971,82.575,294.685,82.575,252.185z M119.125,238.16
		c0,43.635,11.614,77.987,34.85,103.063c23.229,25.074,50.714,37.612,82.45,37.612c24.65,0,46.538-7.79,65.663-23.375
		c19.125-15.579,33.289-34.917,42.5-58.013c9.203-23.09,13.813-47.314,13.813-72.675c0-25.354-2.976-45.542-8.926-60.563
		c-8.221-21.25-21.322-38.25-39.313-51c-17.996-12.75-38.462-19.125-61.412-19.125s-42.646,4.608-59.075,13.813
		c-16.436,9.21-29.61,21.037-39.525,35.487C129.464,173.42,119.125,205.01,119.125,238.16z"/>
</g>
</svg>
