<?xml version="1.0" encoding="utf-8"?>
<!-- Generator: Adobe Illustrator 16.0.0, SVG Export Plug-In . SVG Version: 6.00 Build 0)  -->
<!DOCTYPE svg PUBLIC "-//W3C//DTD SVG 1.1//EN" "http://www.w3.org/Graphics/SVG/1.1/DTD/svg11.dtd">
<svg version="1.1" id="Layer_1" xmlns="http://www.w3.org/2000/svg" xmlns:xlink="http://www.w3.org/1999/xlink" x="0px" y="0px"
	 width="446px" height="499px" viewBox="0 0 446 499" enable-background="new 0 0 446 499" xml:space="preserve">
<g>
	<path stroke="#231F20" stroke-width="2.3604" d="M109.538,172.51c12.889-23.515,31.025-41.79,54.4-54.825
		c23.375-13.029,50.362-19.55,80.962-19.55c25.5,0,49.367,5.598,71.613,16.788c22.239,11.196,40.089,27.983,53.55,50.362
		c13.454,22.386,20.188,49.3,20.188,80.75c0,30.035-6.448,56.811-19.338,80.324c-12.896,23.521-31.024,41.797-54.399,54.825
		c-23.375,13.036-50.362,19.55-80.963,19.55c-25.5,0-49.373-5.591-71.612-16.787c-22.246-11.189-40.096-27.977-53.55-50.362
		c-13.461-22.379-20.188-49.3-20.188-80.75C90.2,222.806,96.642,196.031,109.538,172.51z M340.313,182.497
		c-10.625-20.825-25.221-37.114-43.775-48.875c-18.561-11.754-39.458-17.637-62.687-17.637c-21.25,0-40.163,5.385-56.738,16.15
		c-16.575,10.771-29.537,25.998-38.887,45.688c-9.35,19.696-14.025,42.573-14.025,68.638c0,25.785,5.313,49.087,15.938,69.912
		s25.214,37.121,43.775,48.875c18.554,11.761,39.452,17.638,62.688,17.638c21.25,0,40.163-5.379,56.738-16.15
		c16.574-10.764,29.537-25.991,38.887-45.688c9.351-19.689,14.025-42.566,14.025-68.637
		C356.25,226.631,350.938,203.322,340.313,182.497z"/>
</g>
</svg>
