<?xml version="1.0" encoding="utf-8"?>
<!-- Generator: Adobe Illustrator 16.0.0, SVG Export Plug-In . SVG Version: 6.00 Build 0)  -->
<!DOCTYPE svg PUBLIC "-//W3C//DTD SVG 1.1//EN" "http://www.w3.org/Graphics/SVG/1.1/DTD/svg11.dtd">
<svg version="1.1" id="Layer_1" xmlns="http://www.w3.org/2000/svg" xmlns:xlink="http://www.w3.org/1999/xlink" x="0px" y="0px"
	 width="446px" height="499px" viewBox="0 0 446 499" enable-background="new 0 0 446 499" xml:space="preserve">
<g>
	<path stroke="#231F20" stroke-width="2.3604" d="M269.612,226.272c-7.796,12.896-18.912,23.022-33.362,30.388
		c-14.45,7.371-31.45,11.05-51,11.05c-11.9,0-24.65-1.275-38.25-3.825v92.65c0,11.05,1.415,19.483,4.25,25.287
		c2.829,5.811,5.95,9.709,9.35,11.688c3.4,1.985,5.1,2.689,5.1,2.125H98.125c0,0.564,1.7-0.14,5.1-2.125
		c3.4-1.979,6.441-5.804,9.137-11.475c2.689-5.665,4.038-14.165,4.038-25.5V143.61c0-11.329-1.348-19.975-4.038-25.925
		c-2.696-5.95-5.737-9.987-9.137-12.112s-5.1-2.902-5.1-2.337h83.3c14.45,0,26.35,0.923,35.7,2.762
		c9.35,1.846,17.564,4.609,24.65,8.288c12.75,6.521,22.525,15.938,29.325,28.263c6.801,12.325,10.2,25.573,10.2,39.737
		C281.3,198.72,277.402,213.383,269.612,226.272z M229.875,138.935c-12.471-12.464-29.046-18.7-49.725-18.7H147V247.31
		c12.179,2.271,24.929,3.4,38.25,3.4c19.829,0,35.341-5.737,46.538-17.213c11.189-11.475,16.788-26.702,16.788-45.688
		C248.575,167.695,242.339,151.406,229.875,138.935z"/>
</g>
</svg>
