<?xml version="1.0" encoding="utf-8"?>
<!-- Generator: Adobe Illustrator 16.0.0, SVG Export Plug-In . SVG Version: 6.00 Build 0)  -->
<!DOCTYPE svg PUBLIC "-//W3C//DTD SVG 1.1//EN" "http://www.w3.org/Graphics/SVG/1.1/DTD/svg11.dtd">
<svg version="1.1" id="Layer_1" xmlns="http://www.w3.org/2000/svg" xmlns:xlink="http://www.w3.org/1999/xlink" x="0px" y="0px"
	 width="446px" height="499px" viewBox="0 0 446 499" enable-background="new 0 0 446 499" xml:space="preserve">
<g>
	<path stroke="#231F20" stroke-width="2.3604" d="M162.475,386.91l-31.875-2.551c-8.221,0-17.638,0.638-28.263,1.913
		c-10.625,1.274-16.083,1.912-16.362,1.912c-7.65,0-11.475-2.125-11.475-6.375c0-2.829,0.917-4.814,2.763-5.95
		c1.839-1.129,4.814-2.264,8.925-3.399c4.104-1.129,7.577-2.404,10.413-3.825c3.964-2.265,6.587-6.588,7.862-12.963
		s3.825-26.841,7.65-61.412c3.825-34.564,6.727-60.064,8.713-76.5c1.979-16.429,3.891-31.589,5.737-45.475
		c1.839-13.879,3.4-25.566,4.675-35.063c1.275-9.489,1.913-15.087,1.913-16.788c0-13.879-8.786-21.529-26.35-22.95
		c-9.071-0.564-13.6-2.337-13.6-5.313s0.916-4.954,2.762-5.95c1.839-0.989,5.167-1.487,9.988-1.487l34.425,2.55
		c7.079,0,17.491-0.564,31.237-1.7c13.74-1.129,26.915-1.7,39.525-1.7c12.604,0,21.887,0.286,27.837,0.85
		c19.264,1.7,34.564,8.646,45.9,20.825c11.329,12.186,17,26.563,17,43.138s-5.737,32.161-17.213,46.75
		C273.188,210.043,256.4,221.16,234.3,228.81c-2.55,0.85-3.825,3.048-3.825,6.588c0,3.546,7.292,21.821,21.887,54.825
		c14.59,33.01,25.566,54.333,32.938,63.962c9.915,13.601,21.529,20.4,34.851,20.4c5.379,0,8.074,1.561,8.074,4.675
		c0,6.515-9.137,9.775-27.412,9.775s-30.673-2.623-37.188-7.863c-6.521-5.239-13.813-16.854-21.888-34.85
		c-8.075-17.989-15.871-37.114-23.375-57.375c-7.51-20.254-12.962-34-16.362-41.225c-3.4-7.226-6.8-10.838-10.2-10.838l-19.55,0.425
		l-14.875-0.425c-3.121,0-5.386,2.41-6.8,7.225c-1.421,4.821-2.836,14.875-4.25,30.176l-5.95,59.925l-1.275,14.875
		c0,6.521,1.979,11.688,5.95,15.513c3.965,3.824,8.215,6.309,12.75,7.438c12.75,2.55,19.125,5.671,19.125,9.35
		C176.925,385.07,172.104,386.91,162.475,386.91z M154.4,210.535c0,7.371,4.39,11.05,13.175,11.05h5.95
		c25.214,0,42.427-1.063,51.638-3.188c9.204-2.125,17.066-7.438,23.587-15.938c10.765-14.165,16.15-29.538,16.15-46.113
		c0-16.575-5.313-30.387-15.938-41.438c-10.625-11.05-25.573-16.575-44.837-16.575c-12.75,0-22.246,1.7-28.475,5.1
		c-6.235,3.4-9.775,10.911-10.625,22.525c-0.85,11.621-2.198,24.158-4.038,37.612c-1.846,13.46-3.4,24.298-4.675,32.513
		C155.038,204.306,154.4,209.12,154.4,210.535z"/>
</g>
</svg>
