<?xml version="1.0" encoding="utf-8"?>
<!-- Generator: Adobe Illustrator 16.0.0, SVG Export Plug-In . SVG Version: 6.00 Build 0)  -->
<!DOCTYPE svg PUBLIC "-//W3C//DTD SVG 1.1//EN" "http://www.w3.org/Graphics/SVG/1.1/DTD/svg11.dtd">
<svg version="1.1" id="Layer_1" xmlns="http://www.w3.org/2000/svg" xmlns:xlink="http://www.w3.org/1999/xlink" x="0px" y="0px"
	 width="446px" height="499px" viewBox="0 0 446 499" enable-background="new 0 0 446 499" xml:space="preserve">
<g>
	<path stroke="#231F20" stroke-width="2.3604" d="M250.55,248.447c9.629-6.089,16.927-14.025,21.888-23.8
		c4.954-9.775,7.438-20.042,7.438-30.813c0-11.05-2.337-21.463-7.013-31.238c-4.675-9.775-11.833-17.777-21.462-24.012
		c-9.635-6.229-21.396-9.35-35.275-9.35H180v236.3c0,11.335,1.415,19.908,4.25,25.712c2.829,5.811,5.95,9.636,9.35,11.476
		c3.4,1.846,5.1,2.477,5.1,1.912h-67.575c0,0.564,1.7-0.14,5.1-2.125c3.4-1.979,6.441-5.804,9.137-11.475
		c2.689-5.665,4.038-14.165,4.038-25.5v-212.5c0-11.614-1.348-20.466-4.038-26.563c-2.696-6.089-5.737-10.2-9.137-12.325
		s-5.1-2.763-5.1-1.913h84.15c22.1,0,40.302,3.612,54.613,10.837c14.304,7.225,24.649,16.575,31.024,28.05
		c6.375,11.475,9.563,24.013,9.563,37.613c0,11.335-2.695,22.458-8.074,33.362c-5.386,10.911-13.109,20.4-23.163,28.475
		c-10.061,8.075-21.748,13.673-35.063,16.787l-6.8,1.275l74.8,95.2c9.915,11.05,18.129,19.55,24.65,25.5
		c6.515,5.95,11.263,9.921,14.237,11.899c2.975,1.986,4.741,3.121,5.313,3.4H306.65L191.05,257.585h25.5
		C229.579,257.585,240.915,254.543,250.55,248.447z"/>
</g>
</svg>
