<?xml version="1.0" encoding="utf-8"?>
<!-- Generator: Adobe Illustrator 16.0.0, SVG Export Plug-In . SVG Version: 6.00 Build 0)  -->
<!DOCTYPE svg PUBLIC "-//W3C//DTD SVG 1.1//EN" "http://www.w3.org/Graphics/SVG/1.1/DTD/svg11.dtd">
<svg version="1.1" id="Layer_1" xmlns="http://www.w3.org/2000/svg" xmlns:xlink="http://www.w3.org/1999/xlink" x="0px" y="0px"
	 width="446px" height="499px" viewBox="0 0 446 499" enable-background="new 0 0 446 499" xml:space="preserve">
<g>
	<path stroke="#231F20" stroke-width="2.3604" d="M253.425,98.335L253,113.21v7.225c0,4.25,0.85,11.05,2.55,20.4
		c1.7,9.35,2.55,15.021,2.55,17c0,1.985-0.783,3.758-2.337,5.313c-1.561,1.561-3.334,2.337-5.313,2.337
		c-1.986,0-3.686-1.341-5.1-4.038c-1.421-2.689-2.55-6.089-3.4-10.2c-0.85-4.104-3.188-9.416-7.013-15.938
		c-3.825-6.514-8.858-12.889-15.087-19.125c-13.886-13.6-30.746-20.4-50.575-20.4c-16.436,0-27.346,4.821-32.725,14.45
		c-4.25,7.936-6.375,16.296-6.375,25.075c0,8.786,2.763,18.063,8.288,27.838c5.525,9.775,11.402,17.923,17.638,24.438
		c6.229,6.521,15.579,15.585,28.05,27.2c12.464,11.621,22.665,21.536,30.6,29.75c7.929,8.221,14.091,15.087,18.487,20.612
		c4.39,5.524,8.5,13.035,12.325,22.524c3.825,9.496,5.737,18.773,5.737,27.838c0,9.071-1.487,17.425-4.462,25.075
		c-2.975,7.649-7.936,15.513-14.875,23.587c-6.946,8.075-17.358,14.663-31.237,19.763c-13.886,5.101-33.083,7.65-57.587,7.65
		c-24.511,0-42.148-3.121-52.913-9.351c-3.971-2.264-7.583-9.774-10.837-22.524c-3.261-12.75-4.888-22.737-4.888-29.963
		c0-7.225,2.265-10.837,6.8-10.837c1.979,0,3.54,1.561,4.675,4.675c4.529,14.735,13.102,27.2,25.712,37.399
		c12.604,10.2,29.112,15.301,49.513,15.301c11.9,0,22.166-1.7,30.813-5.101c8.639-3.399,14.941-7.789,18.912-13.175
		c7.079-9.629,10.625-19.265,10.625-28.9c0-9.629-2.41-18.554-7.225-26.774c-4.821-8.215-12.471-17.564-22.95-28.05l-49.725-49.3
		c-26.921-27.479-40.375-52.554-40.375-75.225c0-11.05,1.554-20.54,4.675-28.475c3.114-7.929,6.375-13.6,9.775-17
		c14.45-15.3,33.429-22.95,56.95-22.95c9.915,0,22.452,2.483,37.613,7.438c15.154,4.96,23.089,7.438,23.8,7.438
		c0.704,0,2.829-1.129,6.375-3.4c3.54-2.264,6.017-3.4,7.438-3.4C251.579,89.41,253.425,92.385,253.425,98.335z"/>
</g>
</svg>
