<?xml version="1.0" encoding="utf-8"?>
<!-- Generator: Adobe Illustrator 16.0.0, SVG Export Plug-In . SVG Version: 6.00 Build 0)  -->
<!DOCTYPE svg PUBLIC "-//W3C//DTD SVG 1.1//EN" "http://www.w3.org/Graphics/SVG/1.1/DTD/svg11.dtd">
<svg version="1.1" id="Layer_1" xmlns="http://www.w3.org/2000/svg" xmlns:xlink="http://www.w3.org/1999/xlink" x="0px" y="0px"
	 width="446px" height="499px" viewBox="0 0 446 499" enable-background="new 0 0 446 499" xml:space="preserve">
<g>
	<path stroke="#231F20" stroke-width="2.3604" d="M163.975,395.572c-13.6-4.104-25.786-9.842-36.55-17.213v-51.425
		c7.365,18.985,18.627,33.362,33.788,43.138c15.154,9.775,30.952,14.662,47.388,14.662c16.429,0,30.175-5.451,41.225-16.362
		c11.05-10.903,16.575-24.438,16.575-40.587c0-10.765-2.198-19.976-6.587-27.625c-4.396-7.65-11.409-14.803-21.038-21.463
		c-9.635-6.654-23.235-14.092-40.8-22.313c-24.65-11.329-42.573-23.163-53.763-35.487c-11.196-12.325-16.788-27.267-16.788-44.838
		c0-15.014,3.613-28.402,10.838-40.162c7.225-11.754,17-20.825,29.325-27.2c12.325-6.375,25.852-9.563,40.587-9.563
		c12.75,0,25.215,1.773,37.4,5.313c12.179,3.546,23.514,8.573,34,15.087v45.9c-6.8-15.579-17.073-27.691-30.813-36.337
		c-13.746-8.639-27.698-12.962-41.863-12.962c-16.15,0-29.186,5.246-39.1,15.725c-9.921,10.485-14.875,22.95-14.875,37.4
		c0,10.485,2.975,19.483,8.925,26.987c5.95,7.511,13.241,13.813,21.887,18.913c8.64,5.1,20.752,11.335,36.338,18.7
		c15.864,7.65,28.9,14.736,39.1,21.25c10.2,6.521,18.7,15.021,25.5,25.5c6.8,10.486,10.2,23.236,10.2,38.25
		c0,17-4.037,31.736-12.112,44.2c-8.075,12.472-18.846,22.034-32.3,28.688c-13.46,6.654-28.123,9.987-43.987,9.987
		C191.739,401.734,177.575,399.676,163.975,395.572z"/>
</g>
</svg>
