<?xml version="1.0" encoding="utf-8"?>
<!-- Generator: Adobe Illustrator 16.0.0, SVG Export Plug-In . SVG Version: 6.00 Build 0)  -->
<!DOCTYPE svg PUBLIC "-//W3C//DTD SVG 1.1//EN" "http://www.w3.org/Graphics/SVG/1.1/DTD/svg11.dtd">
<svg version="1.1" id="Layer_1" xmlns="http://www.w3.org/2000/svg" xmlns:xlink="http://www.w3.org/1999/xlink" x="0px" y="0px"
	 width="446px" height="499px" viewBox="0 0 446 499" enable-background="new 0 0 446 499" xml:space="preserve">
<g>
	<path stroke="#231F20" stroke-width="2.3604" d="M191.8,383.935l-36.55,2.125c-9.071,0-13.6-1.979-13.6-5.95
		c0-3.679,1.7-5.804,5.1-6.375c0.85,0,1.554,0,2.125,0c1.7-0.564,3.679-0.85,5.95-0.85c8.214-1.129,13.666-3.752,16.362-7.862
		c2.689-4.104,4.602-10.413,5.737-18.913c19.55-146.479,29.325-223.689,29.325-231.625c0-3.115-1.846-5.027-5.525-5.738
		c-3.686-0.704-15.513-1.063-35.488-1.063c-19.975,0-34.073,0.996-42.287,2.975c-8.221,1.986-14.311,5.246-18.275,9.775
		c-3.971,4.536-6.873,8.786-8.712,12.75c-1.846,3.971-3.048,7.086-3.612,9.35c-1.421,5.95-4.25,8.925-8.5,8.925
		c-3.686,0-5.525-2.477-5.525-7.438c0-4.954,0.491-8.779,1.487-11.475c0.989-2.689,2.689-7.079,5.1-13.175
		c2.404-6.089,4.462-12.537,6.163-19.337c1.7-6.8,3.891-10.904,6.587-12.325c2.689-1.415,7.292-2.125,13.813-2.125l109.65,1.275
		c28.899,0,55.954-0.279,81.175-0.85l38.25-0.85c6.8,0,10.625,1.561,11.476,4.675c0.278,0.85,0.425,2.125,0.425,3.825l1.7,47.175
		c0,6.521-2.696,9.775-8.075,9.775c-2.271,0-3.686-0.85-4.25-2.55c-0.571-1.7-0.996-3.254-1.275-4.675
		c-0.85-4.25-2.623-10.267-5.313-18.063c-2.696-7.79-7.371-12.392-14.024-13.813c-6.661-1.415-23.309-2.125-49.938-2.125H252.15
		c-6.8,0-10.911,1.421-12.325,4.25c-1.421,2.835-2.55,8.434-3.4,16.788c-0.85,8.36-1.348,13.248-1.487,14.663
		c-0.146,1.421-0.286,3.26-0.425,5.525c-0.146,2.271-0.923,10.346-2.338,24.225c-1.421,13.885-4.11,35.985-8.075,66.3
		c-8.5,64.886-12.75,101.084-12.75,108.588c0,7.51,1.913,13.108,5.737,16.787c3.825,3.686,8.002,5.671,12.538,5.95
		c12.179,0.85,18.275,3.399,18.275,7.649s-3.546,6.375-10.625,6.375L191.8,383.935z"/>
</g>
</svg>
