<?xml version="1.0" encoding="utf-8"?>
<!-- Generator: Adobe Illustrator 16.0.0, SVG Export Plug-In . SVG Version: 6.00 Build 0)  -->
<!DOCTYPE svg PUBLIC "-//W3C//DTD SVG 1.1//EN" "http://www.w3.org/Graphics/SVG/1.1/DTD/svg11.dtd">
<svg version="1.1" id="Layer_1" xmlns="http://www.w3.org/2000/svg" xmlns:xlink="http://www.w3.org/1999/xlink" x="0px" y="0px"
	 width="446px" height="499px" viewBox="0 0 446 499" enable-background="new 0 0 446 499" xml:space="preserve">
<g>
	<path stroke="#231F20" stroke-width="2.3604" d="M105.95,294.26l15.725-174.675c0-6.8-1.912-11.9-5.737-15.3
		s-8.009-5.239-12.538-5.525c-12.471-0.85-18.7-3.54-18.7-8.075c0-3.964,2.404-5.95,7.225-5.95L106.8,86.01
		c9.915,0.85,21.104,1.275,33.575,1.275l38.25-2.55c5.665,0,8.5,1.985,8.5,5.95c0,4.25-4.675,7.086-14.025,8.5
		c-3.686,0.571-7.225,2.836-10.625,6.8c-3.4,3.971-5.598,11.409-6.587,22.313c-0.996,10.911-3.188,30.108-6.588,57.587
		c-6.8,58.086-10.2,94.138-10.2,108.162c0,14.025,0.989,24.511,2.975,31.45c1.979,6.946,5.591,14.45,10.837,22.525
		c5.239,8.075,13.527,14.596,24.862,19.55c11.329,4.961,25.214,7.438,41.65,7.438c54.965,0,91.654-22.525,110.075-67.575
		c6.229-15.864,12.963-46.89,20.188-93.075c7.225-46.179,10.838-76.5,10.838-90.95c0-8.779-3.049-14.875-9.138-18.275
		c-6.097-3.4-12.259-5.665-18.487-6.8c-6.236-1.129-9.351-3.467-9.351-7.013c0-3.54,3.4-5.313,10.2-5.313l23.375,1.7l44.2-1.7
		c1.979,0,3.752,0.571,5.313,1.7c1.554,1.135,2.337,2.55,2.337,4.25c0,1.7-1.699,2.975-5.1,3.825
		c-11.621,3.686-18.985,10.911-22.1,21.675c-0.571,1.985-2.696,16.575-6.375,43.775c-10.2,79.335-20.261,130.9-30.176,154.7
		c-6.235,15.021-13.746,26.849-22.524,35.487c-8.786,8.646-21.396,17.924-37.825,27.838c-6.8,3.971-17.073,7.364-30.813,10.2
		c-13.746,2.829-24.862,4.25-33.362,4.25c-24.65,0-44.2-2.411-58.65-7.226c-14.45-4.814-26.21-11.826-35.275-21.037
		c-9.071-9.204-14.809-18.767-17.212-28.688C107.152,326.846,105.95,312.681,105.95,294.26z"/>
</g>
</svg>
