<?xml version="1.0" encoding="utf-8"?>
<!-- Generator: Adobe Illustrator 16.0.0, SVG Export Plug-In . SVG Version: 6.00 Build 0)  -->
<!DOCTYPE svg PUBLIC "-//W3C//DTD SVG 1.1//EN" "http://www.w3.org/Graphics/SVG/1.1/DTD/svg11.dtd">
<svg version="1.1" id="Layer_1" xmlns="http://www.w3.org/2000/svg" xmlns:xlink="http://www.w3.org/1999/xlink" x="0px" y="0px"
	 width="446px" height="499px" viewBox="0 0 446 499" enable-background="new 0 0 446 499" xml:space="preserve">
<g>
	<path stroke="#231F20" stroke-width="2.3604" d="M284.275,111.097c-3.121-4.104-7.936-6.727-14.45-7.862h71.399
		c-3.686,0.571-8.646,3.825-14.875,9.775c-6.235,5.95-12.75,17-19.55,33.15L199.275,405.835L90.05,144.885
		c-6.235-15.015-12.398-25.427-18.487-31.237c-6.096-5.804-11.116-9.277-15.087-10.413h70.975
		c-7.65,1.985-11.475,6.946-11.475,14.875c0,4.25,0.989,8.786,2.975,13.6c1.979,4.821,3.114,7.65,3.4,8.5l82.45,201.875l79.9-196.35
		c2.829-6.515,4.25-13.175,4.25-19.975C288.95,120.095,287.39,115.208,284.275,111.097z"/>
</g>
</svg>
