<?xml version="1.0" encoding="utf-8"?>
<!-- Generator: Adobe Illustrator 16.0.0, SVG Export Plug-In . SVG Version: 6.00 Build 0)  -->
<!DOCTYPE svg PUBLIC "-//W3C//DTD SVG 1.1//EN" "http://www.w3.org/Graphics/SVG/1.1/DTD/svg11.dtd">
<svg version="1.1" id="Layer_1" xmlns="http://www.w3.org/2000/svg" xmlns:xlink="http://www.w3.org/1999/xlink" x="0px" y="0px"
	 width="446px" height="499px" viewBox="0 0 446 499" enable-background="new 0 0 446 499" xml:space="preserve">
<g>
	<path stroke="#231F20" stroke-width="2.3604" d="M395.763,95.013l28.05-1.7c9.629,0,14.45,2.125,14.45,6.375
		c0,3.686-2.696,5.811-8.075,6.375c-6.235,0.286-12.112,2.696-17.638,7.225c-5.525,4.536-12.537,14.596-21.037,30.175
		c-8.5,15.585-18.634,35.275-30.388,59.075c-11.761,23.8-21.608,42.361-29.538,55.675c-7.936,13.32-17.996,30.885-30.175,52.699
		c-27.2,48.45-44.91,78.625-53.125,90.525c-1.7,2.829-4.037,4.25-7.013,4.25c-2.975,0-4.96-0.358-5.949-1.063
		c-0.996-0.711-1.773-1.912-2.338-3.612c-0.571-1.7-1.063-3.474-1.487-5.313c-0.425-1.84-0.996-4.463-1.7-7.862
		c-0.711-3.4-1.487-6.515-2.338-9.351l-25.074-95.2c-1.422-5.664-2.484-8.5-3.188-8.5c-0.711,0-6.873,9.775-18.488,29.325
		c-36.271,61.2-55.821,93.5-58.65,96.9c-1.986,1.979-3.898,2.975-5.738,2.975c-1.846,0-3.473-1.561-4.887-4.675
		c-1.7-3.686-12.398-45.263-32.088-124.737C59.654,195.1,47.827,148.987,43.862,136.237c-3.971-12.75-8.5-20.679-13.6-23.8
		c-0.85-0.279-2.059-0.917-3.612-1.913c-1.561-0.989-4.323-2.191-8.288-3.612c-3.971-1.415-6.733-2.689-8.288-3.825
		c-1.561-1.129-2.337-3.042-2.337-5.737c0-2.689,2.829-4.038,8.5-4.038c0.85,0,5.665,0.498,14.45,1.487
		c8.779,0.996,17,1.488,24.65,1.488l33.575-1.7c7.929,0,11.9,1.7,11.9,5.1c0,2.835-1.846,4.396-5.525,4.675
		c-7.936,0.571-13.387,2.338-16.362,5.313c-2.975,2.975-4.462,8.434-4.462,16.363c0,7.936,9.137,47.46,27.413,118.575
		c18.275,71.121,28.966,106.675,32.087,106.675c0.564,0,5.591-7.438,15.087-22.313c9.489-14.875,18.839-30.453,28.05-46.75
		c9.204-16.289,13.813-26.064,13.813-29.324c0-3.254-0.71-7.717-2.125-13.388l-18.275-72.25c-0.571-1.7-1.561-5.452-2.975-11.263
		c-1.421-5.804-2.41-9.775-2.975-11.9c-0.571-2.125-1.561-5.452-2.975-9.988c-1.421-4.529-2.835-7.929-4.25-10.2
		c-3.686-6.229-7.298-10.479-10.837-12.75c-3.546-2.265-7.225-3.964-11.05-5.1c-3.825-1.129-6.661-2.191-8.5-3.188
		c-1.846-0.989-2.762-2.477-2.762-4.462c0-2.829,4.104-4.25,12.325-4.25l32.725,2.125l33.575-1.7c8.778,0,13.175,1.7,13.175,5.1
		c0,3.686-3.971,5.811-11.9,6.375c-2.835,0-5.458,1.348-7.862,4.038c-2.41,2.696-3.612,6.163-3.612,10.413
		s3.612,20.188,10.838,47.813c7.225,27.625,11.401,41.438,12.537,41.438c3.114,0,11.116-13.6,24.013-40.8
		c12.89-27.2,19.337-43.204,19.337-48.025c0-4.814-2.41-8.5-7.225-11.05c-4.821-2.55-9.563-4.463-14.237-5.738
		s-7.013-3.254-7.013-5.95c0-2.689,3.679-4.038,11.05-4.038l33.15,1.275l27.2-1.275c8.5,0,12.75,1.913,12.75,5.737
		c0,3.825-1.847,5.738-5.525,5.738c-5.1,0-9.35,1.421-12.75,4.25c-3.4,2.835-5.95,5.1-7.65,6.8c-1.699,1.7-3.546,4.11-5.524,7.225
		c-1.985,3.121-3.612,5.671-4.888,7.65c-1.275,1.985-3.188,5.246-5.737,9.775c-2.55,4.536-4.396,7.796-5.525,9.775
		c-1.136,1.986-3.188,5.811-6.162,11.475c-2.976,5.671-5.459,10.2-7.438,13.6c-1.985,3.4-4.396,7.723-7.226,12.962
		c-2.835,5.246-5.173,9.563-7.012,12.962c-1.847,3.4-3.686,6.661-5.525,9.775c-1.846,3.121-3.261,5.598-4.25,7.438
		c-0.996,1.846-1.985,3.612-2.975,5.313c-0.996,1.7-1.7,3.048-2.125,4.037c-0.426,0.996-0.784,1.846-1.063,2.55
		c-0.286,0.71-0.498,1.421-0.638,2.125c-0.146,0.71-0.213,1.348-0.213,1.913v2.125c0,5.1,5.379,25.5,16.15,61.2
		c10.765,35.699,17.212,53.55,19.337,53.55s22.525-36.338,61.2-109.013s58.013-113.116,58.013-121.337
		c0-5.1-1.634-8.852-4.888-11.263c-3.261-2.404-6.873-3.752-10.837-4.038c-10.486-0.85-15.726-3.4-15.726-7.65
		c0-3.679,2.976-5.525,8.925-5.525L395.763,95.013z"/>
</g>
</svg>
