<?xml version="1.0" encoding="utf-8"?>
<!-- Generator: Adobe Illustrator 16.0.0, SVG Export Plug-In . SVG Version: 6.00 Build 0)  -->
<!DOCTYPE svg PUBLIC "-//W3C//DTD SVG 1.1//EN" "http://www.w3.org/Graphics/SVG/1.1/DTD/svg11.dtd">
<svg version="1.1" id="Layer_1" xmlns="http://www.w3.org/2000/svg" xmlns:xlink="http://www.w3.org/1999/xlink" x="0px" y="0px"
	 width="446px" height="499px" viewBox="0 0 446 499" enable-background="new 0 0 446 499" xml:space="preserve">
<g>
	<path stroke="#231F20" stroke-width="2.3604" d="M380.25,122.935c0-11.614-5.1-17.85-15.3-18.7h65.875
		c-4.25,0.85-9.709,4.11-16.362,9.775c-6.661,5.671-12.823,16.721-18.488,33.15l-91.8,259.675l-82.024-235.45l-84.575,235.45
		L53.85,145.885c-7.371-23.8-18.136-37.679-32.3-41.65H92.1c-7.936,1.421-11.9,6.096-11.9,14.025c0,3.971,1.7,11.05,5.1,21.25
		l4.675,14.875l53.55,177.225L229.8,96.16l82.025,233.75l63.325-183.175C378.55,136.535,380.25,128.606,380.25,122.935z"/>
</g>
</svg>
